<?xml version="1.0" encoding="UTF-8" standalone="no"?>
<svg
   xmlns:dc="http://purl.org/dc/elements/1.1/"
   xmlns:cc="http://creativecommons.org/ns#"
   xmlns:rdf="http://www.w3.org/1999/02/22-rdf-syntax-ns#"
   xmlns:svg="http://www.w3.org/2000/svg"
   xmlns="http://www.w3.org/2000/svg"
   xmlns:sodipodi="http://sodipodi.sourceforge.net/DTD/sodipodi-0.dtd"
   xmlns:inkscape="http://www.inkscape.org/namespaces/inkscape"
   width="247px"
   height="45px"
   version="1.1"
   xml:space="preserve"
   style="fill-rule:evenodd;clip-rule:evenodd;stroke-linejoin:round;stroke-miterlimit:1.41421;"
   id="svg3957"
   sodipodi:docname="eco-logo.svg"
   inkscape:version="0.92.4 (5da689c313, 2019-01-14)"><metadata
     id="metadata3963"><rdf:RDF><cc:Work
         rdf:about=""><dc:format>image/svg+xml</dc:format><dc:type
           rdf:resource="http://purl.org/dc/dcmitype/StillImage" /><dc:title></dc:title></cc:Work></rdf:RDF></metadata><defs
     id="defs3961" /><sodipodi:namedview
     pagecolor="#ffffff"
     bordercolor="#666666"
     borderopacity="1"
     objecttolerance="10"
     gridtolerance="10"
     guidetolerance="10"
     inkscape:pageopacity="0"
     inkscape:pageshadow="2"
     inkscape:window-width="1366"
     inkscape:window-height="706"
     id="namedview3959"
     showgrid="false"
     inkscape:zoom="3.4668272"
     inkscape:cx="119.09025"
     inkscape:cy="22.192337"
     inkscape:window-x="1912"
     inkscape:window-y="304"
     inkscape:window-maximized="1"
     inkscape:current-layer="layer2" /><g
     inkscape:groupmode="layer"
     id="layer2"
     inkscape:label="front"><text
       xml:space="preserve"
       style="font-style:normal;font-variant:normal;font-weight:normal;font-stretch:normal;font-size:27.51732635px;line-height:1;font-family:'Microsoft YaHei';-inkscape-font-specification:'Microsoft YaHei';letter-spacing:0px;word-spacing:0px;fill:#ffffff;fill-opacity:1;stroke:none;stroke-width:0.93809062"
       x="79.473717"
       y="22.83811"
       id="text4164"
       transform="scale(0.69794605,1.4327755)"><tspan
         sodipodi:role="line"
         id="tspan4162"
         x="79.473717"
         y="22.83811"
         style="font-style:normal;font-variant:normal;font-weight:normal;font-stretch:normal;font-size:20.01260185px;line-height:1;font-family:'Microsoft YaHei';-inkscape-font-specification:'Microsoft YaHei';fill:#ffffff;stroke-width:0.93809062">风云卫星生态监测服务平台</tspan></text>
<g
       id="g5141"
       transform="matrix(0.08386581,0,0,0.08386581,4.9871291,1.840685)"><circle
         id="circle5046"
         r="250.39999"
         cy="250.39999"
         cx="250.39999"
         style="fill:#a9eae8" /><circle
         id="circle5048"
         r="214.39999"
         cy="273.60001"
         cx="273.60001"
         style="fill:#7dd1d1" /><path
         d="m 500.8,234.4 c -4,-69.6 -36.8,-131.2 -86.4,-173.6 -40,12.8 -69.6,49.6 -69.6,94.4 0,2.4 0,4 0,6.4 0,0 0,0 -0.8,0 -12,-16.8 -32,-28 -55.2,-28 -24.8,0 -46.4,13.6 -58.4,33.6 -4,-0.8 -8,-1.6 -12.8,-1.6 -4,0 -8,0 -11.2,0.8 -8,-9.6 -20,-15.2 -33.6,-15.2 -10.4,0 -20.8,4 -28,10.4 -4.8,-1.6 -8.8,-2.4 -13.6,-2.4 -6.4,-16.8 -18.4,-31.2 -32.8,-40.8 0,-0.8 0,-1.6 0,-2.4 C 98.4,96.8 92,79.2 82.4,64.8 31.2,110.4 0,176.8 0,250.4 c 0,4 0,8 0,12 14.4,9.6 31.2,16 49.6,16 9.6,0 19.2,-1.6 28,-4.8 12,12.8 29.6,20.8 48.8,20.8 16,0 30.4,-5.6 42.4,-14.4 12.8,13.6 30.4,21.6 49.6,21.6 24,0 44.8,-12.8 56.8,-31.2 12.8,15.2 31.2,25.6 52.8,25.6 32.8,0 60,-23.2 66.4,-54.4 14.4,8 30.4,12.8 48,12.8 22.4,-1.6 41.6,-8 58.4,-20 z"
         style="fill:#eae9da"
         id="SVGCleanerId_0"
         inkscape:connector-curvature="0" /><g
         id="g5052"><path
           inkscape:connector-curvature="0"
           d="m 500.8,234.4 c -4,-69.6 -36.8,-131.2 -86.4,-173.6 -40,12.8 -69.6,49.6 -69.6,94.4 0,2.4 0,4 0,6.4 0,0 0,0 -0.8,0 -12,-16.8 -32,-28 -55.2,-28 -24.8,0 -46.4,13.6 -58.4,33.6 -4,-0.8 -8,-1.6 -12.8,-1.6 -4,0 -8,0 -11.2,0.8 -8,-9.6 -20,-15.2 -33.6,-15.2 -10.4,0 -20.8,4 -28,10.4 -4.8,-1.6 -8.8,-2.4 -13.6,-2.4 -6.4,-16.8 -18.4,-31.2 -32.8,-40.8 0,-0.8 0,-1.6 0,-2.4 C 98.4,96.8 92,79.2 82.4,64.8 31.2,110.4 0,176.8 0,250.4 c 0,4 0,8 0,12 14.4,9.6 31.2,16 49.6,16 9.6,0 19.2,-1.6 28,-4.8 12,12.8 29.6,20.8 48.8,20.8 16,0 30.4,-5.6 42.4,-14.4 12.8,13.6 30.4,21.6 49.6,21.6 24,0 44.8,-12.8 56.8,-31.2 12.8,15.2 31.2,25.6 52.8,25.6 32.8,0 60,-23.2 66.4,-54.4 14.4,8 30.4,12.8 48,12.8 22.4,-1.6 41.6,-8 58.4,-20 z"
           style="fill:#eae9da"
           id="SVGCleanerId_0_1_" /></g><path
         id="path5054"
         d="m 499.2,222.4 c 0.8,8.8 1.6,18.4 1.6,28 0,138.4 -112,250.4 -250.4,250.4 C 152,500.8 66.4,444 25.6,360.8 112.8,280 292,223.2 499.2,222.4 Z"
         style="fill:#493322"
         inkscape:connector-curvature="0" /><path
         id="path5056"
         d="m 500.8,250.4 c 0,138.4 -112,250.4 -250.4,250.4 -98.4,0 -184,-56.8 -224.8,-140"
         style="fill:#3a2819"
         inkscape:connector-curvature="0" /><path
         id="path5058"
         d="m 1.6,222.4 c -0.8,8.8 -1.6,18.4 -1.6,28 0,138.4 112,250.4 250.4,250.4 98.4,0 184,-56.8 224.8,-140 C 388,280 208.8,223.2 1.6,222.4 Z"
         style="fill:#34b515"
         inkscape:connector-curvature="0" /><path
         id="path5060"
         d="m 1.6,222.4 c -0.8,8.8 -1.6,18.4 -1.6,28 0,138.4 112,250.4 250.4,250.4 98.4,0 184,-56.8 224.8,-140 C 388,280 208.8,223.2 1.6,222.4 Z"
         style="fill:#1d7001"
         inkscape:connector-curvature="0" /><path
         id="path5062"
         d="m 250.4,500.8 c 56.8,0 109.6,-19.2 151.2,-51.2 C 328,358.4 181.6,272 1.6,221.6 v 0 C 0.8,230.4 0,240 0,249.6 0,388.8 112,500.8 250.4,500.8 Z"
         style="fill:#239b02"
         inkscape:connector-curvature="0" /><path
         id="path5064"
         d="m 250.4,500.8 c 17.6,0 35.2,-1.6 52.8,-5.6 C 244.8,402.4 138.4,302.4 1.6,222.4 v 0 C 0.8,231.2 0,240.8 0,250.4 0,388.8 112,500.8 250.4,500.8 Z"
         style="fill:#1d7001"
         inkscape:connector-curvature="0" /><path
         id="path5066"
         d="M 3.2,222.4 C 2.4,223.2 1.6,223.2 1.6,224 0.8,232.8 0,241.6 0,250.4 0,363.2 74.4,458.4 176.8,489.6 140.8,404 81.6,310.4 3.2,222.4 Z"
         style="fill:#239b02"
         inkscape:connector-curvature="0" /><g
         id="g5072"><rect
           id="rect5068"
           height="80"
           width="112"
           style="fill:#493322"
           y="162.39999"
           x="338.39999" /><polygon
           id="polygon5070"
           points="322.4,178.4 338.4,138.4 448.8,138.4 464.8,178.4 "
           style="fill:#493322" /></g><rect
         id="rect5074"
         height="24"
         width="24"
         style="fill:#eae9da"
         y="186.39999"
         x="370.39999" /><path
         id="path5076"
         d="m 184,191.2 c 8,-52.8 40,-110.4 76,-124 v -0.8 0 0 0 c 30.4,22.4 44.8,87.2 37.6,140 -8,52.8 -35.2,78.4 -71.2,91.2 v 0.8 0 0 -0.8 C 196,276 176.8,244 184,191.2 Z"
         style="fill:#239b02"
         inkscape:connector-curvature="0" /><path
         id="path5078"
         d="m 227.2,299.2 v 0 0 c -0.8,0 -0.8,0 0,0 v 0 C 196,276 176.8,244 184,191.2 c 8,-52.8 40,-110.4 76,-124 v -0.8 0 0 0"
         style="fill:#34b515"
         inkscape:connector-curvature="0" /><path
         id="path5080"
         d="M 164,269.6 C 144.8,243.2 133.6,204 143.2,183.2 v 0 0 0 0 c 23.2,-3.2 57.6,18.4 76.8,44.8 19.2,26.4 18.4,48.8 8.8,70.4 v 0 0 0 0 C 205.6,301.6 183.2,296 164,269.6 Z"
         style="fill:#239b02"
         inkscape:connector-curvature="0" /><path
         id="path5082"
         d="m 228.8,297.6 v 0 0 c 0,0.8 0,0.8 0,0 v 0 c -23.2,4 -45.6,-1.6 -65.6,-28 C 144,243.2 132.8,204 142.4,183.2 v 0 0 0 0"
         style="fill:#34b515"
         inkscape:connector-curvature="0" /></g></g></svg>